<?xml version="1.0" standalone="no"?>
<!DOCTYPE svg PUBLIC "-//W3C//DTD SVG 1.1//EN" "http://www.w3.org/Graphics/SVG/1.1/DTD/svg11.dtd" >
<svg xmlns="http://www.w3.org/2000/svg">
<metadata></metadata>
<defs>
<font id="heldustryftvbasic_blackRg" horiz-adv-x="1347" >
<font-face units-per-em="2048" ascent="1638" descent="-410" />
<missing-glyph horiz-adv-x="450" />
<glyph horiz-adv-x="2048" />
<glyph horiz-adv-x="2048" />
<glyph unicode="&#xd;" horiz-adv-x="1024" />
<glyph unicode=" "  horiz-adv-x="450" />
<glyph unicode="&#x09;" horiz-adv-x="450" />
<glyph unicode="&#xa0;" horiz-adv-x="450" />
<glyph unicode="!" horiz-adv-x="573" d="M104 1087v383h365v-383l-53 -626h-254zM113 0v334h350v-334h-350z" />
<glyph unicode="&#x22;" horiz-adv-x="819" d="M82 1475h285l-41 -474h-215zM453 1475h284l-41 -474h-217z" />
<glyph unicode="#" horiz-adv-x="1187" d="M31 430l32 236h183l20 155h-182l39 242h180l49 356h260l-53 -356h113l53 356h260l-51 -356h180l-35 -242h-182l-20 -155h180l-35 -236h-180l-62 -430h-262l64 430h-113l-63 -430h-256l61 430h-180zM483 666h154l20 155h-153z" />
<glyph unicode="$" horiz-adv-x="1320" d="M61 535h342q4 -106 34 -171t132 -90v338q-72 14 -140.5 30.5t-131.5 51.5q-80 43 -134 121t-54 209q0 125 44 206t111.5 129t148.5 68.5t156 26.5v90h187v-88q25 -2 58.5 -7t70.5 -15.5t74.5 -25.5t70.5 -36q98 -66 138 -164t42 -252h-331q-6 41 -8.5 75t-12.5 61.5 t-32.5 47t-69.5 31.5v-280q94 -16 185 -41t162 -71t114 -123.5t43 -202.5q0 -145 -51.5 -233.5t-128 -138.5t-164 -70.5t-160.5 -28.5v-158h-187v158q-39 6 -87 15t-98 26.5t-98 44t-89 67.5q-72 72 -98.5 171.5t-37.5 228.5zM440 1055q0 -41 8.5 -64.5t24.5 -38t40.5 -20.5 t55.5 -12v256q-20 -2 -42.5 -8.5t-42 -19.5t-32 -35.5t-12.5 -57.5zM756 266q29 2 58.5 9.5t54 25.5t40 52t15.5 89q0 72 -39 97.5t-129 42.5v-316z" />
<glyph unicode="%" horiz-adv-x="1982" d="M72 1012q0 152 37.5 243t94 139t123 63.5t122.5 15.5q39 0 102 -9.5t124.5 -54.5t105.5 -137t44 -260q0 -164 -35.5 -259.5t-90 -144.5t-120 -63.5t-122.5 -14.5q-35 0 -76 3.5t-84 17.5t-84 45t-71.5 84t-50 134t-19.5 198zM362 1004q0 -78 7.5 -124t19.5 -69t28.5 -29 t35.5 -6q25 0 40 15.5t24 39t12 52t3 55.5v59q0 51 -1 93.5t-9 71t-25.5 45t-47.5 16.5q-14 0 -30 -5.5t-28 -27t-20.5 -65.5t-8.5 -121zM563 -51l578 1513h268l-571 -1513h-275zM1155 440q0 152 38 243t94 140t123 64.5t122 15.5q39 0 102.5 -9t125 -54t105.5 -138.5 t44 -261.5q0 -164 -36 -259t-90 -144t-120 -63.5t-123 -14.5q-35 0 -76 3t-84 17.5t-84 45t-71.5 84t-50 134.5t-19.5 197zM1446 432q0 -78 7 -123t19.5 -67.5t29 -28.5t34.5 -6q25 0 40 15.5t24.5 39t12.5 52t3 55.5v59q0 51 -1 92t-9.5 71t-25.5 45t-48 15q-14 0 -29.5 -5 t-28 -26.5t-20.5 -65.5t-8 -122z" />
<glyph unicode="&#x26;" horiz-adv-x="1392" d="M41 383q0 -74 20.5 -147.5t77 -133t155.5 -96.5t257 -37q154 0 245 37t144 76l66 -82h385l-275 358q63 190 53 390h-241l-6 -148l-158 205q37 31 73.5 67.5t66.5 82.5t48.5 101.5t18.5 121.5q0 100 -35 162.5t-91.5 97.5t-125 48t-135.5 13q-104 0 -172 -22.5t-117 -69.5 q-53 -47 -75.5 -111.5t-22.5 -124.5q0 -43 13 -85t34.5 -80.5t47 -75.5t50.5 -70q-61 -47 -115.5 -94t-95.5 -104.5t-65.5 -125t-24.5 -153.5zM375 401q0 37 13 70t34.5 60.5t47.5 51t52 42.5l262 -340q-37 -27 -100 -49.5t-129 -22.5q-47 0 -81 17.5t-56.5 44t-32.5 60.5 t-10 66zM510 1180q0 51 19.5 78.5t66.5 27.5q45 0 59.5 -29.5t14.5 -68.5q0 -43 -29 -82t-55 -70q-23 29 -49.5 68t-26.5 76z" />
<glyph unicode="'" horiz-adv-x="501" d="M88 1155v315h326v-278q0 -51 -12.5 -106.5t-41.5 -98.5q-41 -61 -102 -96t-166 -45v133q59 35 96 69.5t43 106.5h-143z" />
<glyph unicode="(" horiz-adv-x="737" d="M76 369v731q0 160 32.5 270.5t83 184t112 114.5t118.5 61.5t104 24.5t70 4h66v-274q-68 0 -115 -20.5t-77 -73t-42 -140.5t-12 -221v-575q0 -154 15 -246t46 -141.5t77 -64.5t108 -15v-275h-99q-35 0 -84 9.5t-102 36t-107.5 72.5t-97.5 119t-69.5 176t-26.5 243z" />
<glyph unicode=")" horiz-adv-x="737" d="M76 -12q61 0 107 15t77 64.5t46.5 141.5t15.5 246v575q0 133 -12.5 221t-42 140.5t-77 73t-114.5 20.5v274h65q23 0 70 -4t104.5 -24.5t119 -61.5t111.5 -114.5t83 -184t33 -270.5v-731q0 -139 -27 -242.5t-70 -176.5t-97 -119t-107.5 -72.5t-102.5 -36t-84 -9.5h-98v275 z" />
<glyph unicode="*" horiz-adv-x="819" d="M84 1092l207 71l-207 68l102 180l154 -149l-37 223h213l-37 -223l154 149l102 -180l-207 -66l207 -73l-102 -181l-162 154l45 -217h-213l45 217l-162 -154z" />
<glyph unicode="+" horiz-adv-x="1228" d="M53 418v299h404v405h315v-405h404v-299h-404v-418h-315v418h-404z" />
<glyph unicode="," horiz-adv-x="532" d="M92 0h150q-6 -76 -39 -115t-111 -61v-154q70 6 119 23.5t82 40t52.5 45t27.5 37.5q39 59 53 120.5t14 120.5v285h-348v-342z" />
<glyph unicode="-" horiz-adv-x="778" d="M125 420v303h528v-303h-528z" />
<glyph unicode="." horiz-adv-x="532" d="M92 0v342h348v-342h-348z" />
<glyph unicode="/" horiz-adv-x="626" d="M-31 -72h287l406 1540h-287z" />
<glyph unicode="0" horiz-adv-x="1351" d="M100 745q0 176 29 315.5t95.5 235t176 145.5t269.5 50q188 0 302.5 -62.5t176 -165t82 -233.5t20.5 -268q0 -154 -15 -295t-74.5 -249.5t-176.5 -173t-317 -64.5q-170 0 -281 57t-174 158.5t-88 242t-25 307.5zM440 758q0 -115 8.5 -206t34 -155.5t70.5 -99.5t119 -35 q45 0 88 10.5t76.5 56.5t54 139t20.5 257q0 133 -11 225t-38.5 149.5t-74 83t-113.5 25.5q-86 0 -133 -44t-69.5 -110.5t-27 -146.5t-4.5 -149z" />
<glyph unicode="1" horiz-adv-x="864" d="M47 981v256q82 2 142.5 7t107.5 27.5t86 68.5t76 130h291v-1470h-349v981h-354z" />
<glyph unicode="2" horiz-adv-x="1269" d="M66 100q0 102 30.5 181t81.5 141.5t117.5 113t138.5 96.5t144.5 92t134.5 101q31 27 48 49.5t27.5 48t13.5 57.5t3 79q0 37 -6 64.5t-23.5 47t-50.5 29.5t-84 10q-66 0 -103.5 -10t-57 -38.5t-24.5 -82t-5 -141.5h-345v123q0 100 26 172t67 120t95 75.5t111.5 41 t113.5 17.5t104 4q131 0 231 -20.5t168 -72.5t101.5 -141.5t33.5 -226.5q0 -113 -31.5 -195.5t-85 -146t-124 -111t-146.5 -91.5t-153.5 -89t-145.5 -100h684v-297h-1087q0 41 -1 62.5t-1 37.5z" />
<glyph unicode="3" horiz-adv-x="1351" d="M100 532h342q6 -63 14.5 -113t33 -85t70.5 -53.5t128 -18.5q111 0 161 38t50 146q0 61 -14.5 99.5t-42 59t-68.5 26.5t-92 6h-129v274h133q51 0 84 11.5t51.5 31t24.5 44t6 49.5q0 55 -11.5 87.5t-34 50t-55 22.5t-73.5 5q-66 0 -103.5 -17t-58 -50t-28 -78t-9.5 -102 h-338q0 106 24.5 202.5t87 168t168 113.5t267.5 42q92 0 183.5 -17.5t164 -63.5t117.5 -128t45 -213q0 -82 -34 -155.5t-107 -120.5q37 -14 71.5 -39t62.5 -65t44 -99t16 -141q0 -123 -38.5 -212.5t-110.5 -146.5t-174.5 -83.5t-227.5 -26.5q-168 0 -282.5 41.5t-185 115.5 t-101.5 175.5t-31 219.5z" />
<glyph unicode="4" horiz-adv-x="1263" d="M80 317v316l629 837h319v-882h191v-271h-191v-317h-330v317h-618zM397 588h301v405z" />
<glyph unicode="5" horiz-adv-x="1331" d="M100 418v80h336q8 -53 17.5 -95.5t31 -73t60.5 -47t106 -16.5q117 0 171.5 50.5t54.5 191.5q0 129 -40 191.5t-157 62.5q-47 0 -79 -6t-58.5 -19.5t-51 -34t-57.5 -47.5h-295l170 815h852v-299h-608l-39 -174q49 27 101.5 38.5t109.5 11.5q98 0 188.5 -30t159 -93.5 t109.5 -164t41 -241.5q0 -152 -48.5 -254t-129 -166.5t-186 -92.5t-220.5 -28q-162 0 -266.5 50.5t-165 120t-84 145.5t-23.5 125z" />
<glyph unicode="6" horiz-adv-x="1351" d="M100 713q0 186 27 316t72 216t104 135.5t127 74t138.5 30.5t136.5 6q156 0 251 -37t150 -96.5t78.5 -137t36.5 -159.5h-338q-14 39 -25.5 67.5t-30 45t-49 24.5t-84.5 8q-59 0 -102 -10t-71.5 -40t-46 -83t-25.5 -139q49 35 116.5 56.5t155.5 21.5q113 0 209 -29 t165.5 -90.5t108.5 -158.5t39 -234q0 -133 -39 -231.5t-111.5 -163t-176 -95t-230.5 -30.5q-199 0 -314.5 58t-176 158.5t-78 233.5t-17.5 283zM457 496q0 -123 48 -180.5t179 -57.5q37 0 76 4t69.5 28.5t51 78t20.5 151.5q0 111 -47 161t-164 50q-84 0 -130 -24.5 t-69.5 -60.5t-28.5 -77t-5 -73z" />
<glyph unicode="7" horiz-adv-x="1157" d="M63 1176v294h1031v-276q-88 -76 -186.5 -201t-172.5 -291q-80 -184 -115.5 -366t-52.5 -336h-362q4 59 18.5 152.5t40 201t62 218t84.5 202.5q74 147 145.5 243.5t130.5 158.5h-623z" />
<glyph unicode="8" horiz-adv-x="1351" d="M100 430q0 86 13.5 146.5t38 104.5t60.5 72.5t79 49.5q-57 35 -97 98.5t-40 157.5q0 119 38.5 201.5t108.5 134t165 74t210 22.5q20 0 67.5 -2t104.5 -14.5t117.5 -36t111.5 -68.5t83 -112.5t32 -165.5q0 -123 -40 -187.5t-99 -97.5q39 -16 74.5 -44t63.5 -69t45 -98 t17 -131q0 -145 -51 -238.5t-133 -148.5t-185.5 -76.5t-207.5 -21.5q-279 0 -427.5 119.5t-148.5 330.5zM449 444q0 -45 9 -78.5t34.5 -56t69.5 -34t114 -11.5q131 0 182 44.5t51 144.5q0 70 -14 110.5t-44 62t-73 27.5t-98 6q-74 0 -119 -14t-69.5 -42t-33.5 -67.5 t-9 -91.5zM498 1077q0 -37 6 -65.5t25.5 -47t54 -27.5t92.5 -9q92 0 130 29.5t38 123.5q0 78 -37 104.5t-131 26.5q-25 0 -55.5 -2t-58 -14t-46 -40t-18.5 -79z" />
<glyph unicode="9" horiz-adv-x="1351" d="M100 975q0 131 40 228t113 162t172 95.5t218 30.5q184 0 300 -48t180.5 -138.5t88 -219t23.5 -288.5q0 -199 -24.5 -337t-66.5 -229.5t-99.5 -141.5t-123 -74.5t-135 -29.5t-139.5 -5q-127 0 -219 21.5t-156.5 70.5t-100.5 131t-48 203h332q8 -35 20 -62t33.5 -45 t58.5 -27.5t95 -9.5q70 0 111.5 20.5t64 56.5t32 84t15.5 103q-45 -29 -112.5 -49t-166.5 -20q-109 0 -202 29.5t-160.5 92t-105.5 161t-38 235.5zM438 977q0 -55 5.5 -99t27 -75t64.5 -47.5t116 -16.5q135 0 181.5 61.5t46.5 182.5q0 68 -14.5 113t-42 71.5t-69.5 36.5 t-96 10q-123 0 -171 -54t-48 -183z" />
<glyph unicode=":" horiz-adv-x="532" d="M92 0v342h348v-342h-348zM92 748v344h348v-344h-348z" />
<glyph unicode=";" horiz-adv-x="532" d="M92 0v342h348v-285q0 -59 -14 -120.5t-53 -120.5q-8 -16 -27.5 -38t-52.5 -44.5t-82 -40t-119 -23.5v154q78 23 111 61.5t39 114.5h-150zM92 748v344h348v-344h-348z" />
<glyph unicode="&#x3c;" horiz-adv-x="1290" d="M98 408l1094 -451v322l-629 247l629 254v316l-1094 -453v-235z" />
<glyph unicode="=" horiz-adv-x="1044" d="M90 178v322h864v-322h-864zM90 596v322h864v-322h-864z" />
<glyph unicode="&#x3e;" horiz-adv-x="1290" d="M98 -43l1094 451v235l-1094 453v-316l629 -254l-629 -247v-322z" />
<glyph unicode="?" horiz-adv-x="1064" d="M45 967v98q0 94 30.5 173t93 137.5t158 91t222.5 32.5q88 0 173 -19.5t151.5 -68.5t106.5 -134t40 -216q0 -104 -37 -174t-88 -123q-45 -47 -95 -86t-89 -88q-33 -35 -45.5 -63.5t-16.5 -80.5h-315q0 82 15.5 137.5t40 94.5t54 68.5l58.5 58.5q31 31 63.5 58.5t60 59 t46 68.5t18.5 86q0 158 -139 158q-53 0 -88 -12.5t-56.5 -43t-29.5 -83t-8 -129.5h-324zM317 0v334h351v-334h-351z" />
<glyph unicode="@" horiz-adv-x="1515" d="M61 344q0 395 189.5 603t548.5 208q143 0 252.5 -30.5t184.5 -103.5t112.5 -194.5t37.5 -304.5v-258v-22q0 -10 1.5 -18.5t13.5 -8.5h4q6 0 21.5 2t56.5 6v-229q-66 -14 -100.5 -19.5t-57.5 -5.5q-104 0 -154.5 33t-66.5 74q-106 -113 -289 -113q-174 0 -271.5 91 t-97.5 257q0 160 87.5 249t267.5 122q66 12 119 17.5t90 9.5q29 4 38 7t9 19q0 29 -8.5 64t-36 64.5t-80.5 49t-144 19.5q-98 0 -178 -35t-138 -105.5t-90 -176t-32 -246.5q0 -143 25.5 -242.5t77 -161t130.5 -89.5t187 -28q29 0 56.5 2.5t61.5 8.5t75 16t96 27v-254 q-98 -29 -167 -38t-138 -9q-358 0 -525.5 185t-167.5 558zM768 330q0 -72 26.5 -98.5t73.5 -26.5q86 0 143.5 45t57.5 119v139q-47 -16 -99 -23.5t-102 -17.5q-55 -10 -77.5 -45t-22.5 -92z" />
<glyph unicode="A" horiz-adv-x="1351" d="M-14 0l503 1470h347l520 -1470h-365l-96 303h-463l-94 -303h-352zM518 578h291l-143 473z" />
<glyph unicode="B" horiz-adv-x="1447" d="M147 0v1470h713q137 0 225.5 -36.5t139.5 -96t69 -131.5q17 -65 17 -129v-14q-4 -201 -127 -272q80 -31 131 -111t51 -223q0 -152 -52 -242t-135 -137t-184.5 -62.5t-199.5 -15.5h-648zM496 289h356q92 0 128 39t36 127q0 61 -12.5 97t-32 56.5t-43 26.5t-45.5 6h-387 v-352zM496 903h335q78 0 107 42t29 114q0 70 -20.5 103.5t-82.5 33.5h-368v-293z" />
<glyph unicode="C" horiz-adv-x="1464" d="M92 752q0 172 41 310t127 235.5t218 149.5t315 52q184 0 300.5 -46t186.5 -119.5t100.5 -168t42.5 -188.5h-329q-12 49 -26.5 94t-44.5 78t-80 52.5t-134 19.5q-102 0 -172 -27t-113 -86t-61.5 -156.5t-18.5 -238.5q0 -143 26 -232.5t72 -139.5t112.5 -68.5t148.5 -18.5 q84 0 133 20.5t77.5 58.5t45 90t33.5 118h340q-12 -115 -50.5 -218.5t-112 -181.5t-190 -124t-284.5 -46q-193 0 -327 52.5t-217 151.5t-121 244.5t-38 332.5z" />
<glyph unicode="D" horiz-adv-x="1501" d="M147 0v1470h619q174 0 295 -50t196.5 -145t110.5 -231.5t35 -310.5q0 -197 -43 -336t-132 -227t-223.5 -129t-318.5 -41h-539zM494 289h243q92 0 153.5 23.5t97.5 78.5t51.5 145.5t15.5 223.5q0 125 -19.5 208t-58.5 131t-94.5 67.5t-128.5 19.5h-260v-897z" />
<glyph unicode="E" d="M147 0v1470h1147v-284h-798v-271h735v-284h-735v-342h819v-289h-1168z" />
<glyph unicode="F" horiz-adv-x="1271" d="M147 0v1470h1090v-284h-741v-289h624v-283h-624v-614h-349z" />
<glyph unicode="G" horiz-adv-x="1523" d="M92 752q0 747 703 747h2q174 0 294.5 -45t195.5 -119.5t107.5 -171t32.5 -198.5h-356q0 45 -7 92t-35 84t-83 60.5t-151 23.5t-163 -25.5t-109 -81t-61.5 -143.5t-19.5 -211q0 -135 16.5 -231.5t58.5 -156t111.5 -87t176.5 -27.5q61 0 116.5 15.5t96.5 48t64 84.5 q20 47 20 111v11h-328v271h678v-803h-283v150q-31 -53 -76.5 -87t-100 -53.5t-113 -27t-113.5 -7.5q-193 0 -322 59.5t-207.5 164t-111.5 247t-33 306.5z" />
<glyph unicode="H" horiz-adv-x="1480" d="M147 0v1470h349v-548h524v548h348v-1470h-348v635h-524v-635h-349z" />
<glyph unicode="I" horiz-adv-x="651" d="M168 0v1470h346v-1470h-346z" />
<glyph unicode="J" horiz-adv-x="1134" d="M43 422v149h324v-141q0 -55 7 -89t24.5 -52.5t46 -24.5t71.5 -6q55 0 88 9t48.5 29.5t19.5 53.5t4 82v1038h346v-1069q0 -86 -23.5 -164.5t-79 -139t-147.5 -95.5t-229 -35q-250 0 -375 105.5t-125 349.5z" />
<glyph unicode="K" horiz-adv-x="1413" d="M147 0v1470h349v-542l493 542h447l-584 -608l608 -862h-428l-422 627l-114 -115v-512h-349z" />
<glyph unicode="L" horiz-adv-x="1196" d="M147 0v1470h349v-1181h696v-289h-1045z" />
<glyph unicode="M" horiz-adv-x="1753" d="M147 0h336v958l240 -958h336l241 961v-961h336v1470h-471l-272 -1105l-287 1105h-459v-1470z" />
<glyph unicode="N" horiz-adv-x="1488" d="M147 0h349v895l532 -895h344v1470h-346v-888l-537 888h-342v-1470z" />
<glyph unicode="O" horiz-adv-x="1622" d="M92 725q0 215 54.5 363.5t152.5 239.5t233.5 131t298.5 40q180 0 312.5 -54t218.5 -153.5t127 -242t41 -318.5q0 -389 -186.5 -575.5t-565.5 -186.5q-147 0 -273 47t-218 140.5t-143.5 236t-51.5 332.5zM442 725q0 -225 86 -351t271 -126q129 0 204.5 41t115.5 109.5 t51.5 157.5t11.5 187q0 135 -24.5 226.5t-71 146.5t-112 80t-145.5 25q-117 0 -191.5 -32t-118.5 -94.5t-60.5 -155.5t-16.5 -214z" />
<glyph unicode="P" horiz-adv-x="1366" d="M147 0v1470h730q96 0 178 -29.5t141 -87t92 -143t33 -198.5q0 -55 -15.5 -133t-66.5 -149t-150.5 -120t-265.5 -49h-327v-561h-349zM496 831h325q41 0 71 7.5t48 27t26.5 56.5t8.5 96q0 57 -9.5 91t-31 51.5t-54 22.5t-77.5 5h-307v-357z" />
<glyph unicode="Q" horiz-adv-x="1628" d="M92 723q0 217 54.5 364.5t152.5 238.5t233.5 131t298.5 40q180 0 312.5 -54t218.5 -153.5t127 -242t41 -318.5q0 -147 -23.5 -246.5t-54.5 -167.5q-16 -33 -35.5 -63.5t-44.5 -58.5l150 -150l-168 -178l-180 174q-45 -20 -97.5 -34.5t-103.5 -23t-99.5 -11.5t-85.5 -3 q-143 0 -269 43t-221 134.5t-150.5 234.5t-55.5 344zM442 723q0 -129 26 -221t73 -151.5t112.5 -87t145.5 -27.5q53 0 86 5t67 13l-137 135l172 178l146 -141q29 61 39 142t10 173q0 135 -24.5 226.5t-71 147.5t-112 81t-145.5 25q-117 0 -191.5 -33t-118.5 -95.5 t-60.5 -155.5t-16.5 -214z" />
<glyph unicode="R" horiz-adv-x="1474" d="M147 0v1470h732q80 0 169 -13t163.5 -57t122.5 -130t48 -232q0 -135 -58 -215t-150 -108q41 -16 68.5 -53t44 -82t24.5 -92.5t12 -86.5q6 -66 9 -114.5t10.5 -94t22.5 -90.5t46 -102h-362q-33 49 -44.5 115.5t-15.5 136.5t-10 137.5t-29 118.5q-10 25 -35.5 39t-78.5 14 h-340v-561h-349zM496 838h338q66 0 104.5 11t58 33.5t25.5 56.5t6 81q0 49 -7 81t-25.5 51t-51.5 26.5t-82 7.5h-366v-348z" />
<glyph unicode="S" horiz-adv-x="1392" d="M74 530h338q4 -63 18 -116.5t48 -91t89.5 -59t141.5 -21.5q141 0 204.5 42t63.5 162q0 63 -25.5 91t-79.5 45q-61 18 -148 28.5t-198 34.5q-86 20 -159.5 46t-129 73t-86 123t-30.5 198q0 90 27.5 157t73.5 113t106.5 74.5t124 44t127 20.5t116.5 5q180 0 293 -45 t175.5 -116.5t84 -162t21.5 -178.5h-332q-8 37 -12 82t-25 78q-16 29 -60 52.5t-139 23.5q-74 0 -120.5 -10.5t-73.5 -31t-37 -53t-10 -77.5q0 -53 29.5 -76.5t109.5 -40.5q84 -18 170 -30.5t166 -30t149.5 -46t122 -78.5t82 -129t29.5 -196q0 -465 -625 -465 q-303 0 -461.5 137.5t-158.5 423.5z" />
<glyph unicode="T" horiz-adv-x="1200" d="M6 1186v284h1188v-284h-420v-1186h-348v1186h-420z" />
<glyph unicode="U" horiz-adv-x="1468" d="M147 492v978h349v-997q0 -55 11 -96t42 -68.5t84 -41t137 -13.5q141 0 189.5 53t48.5 158v1005h348v-983q0 -139 -42 -236t-120 -159.5t-191.5 -91.5t-254.5 -29q-160 0 -274 36t-186.5 103.5t-106.5 164t-34 217.5z" />
<glyph unicode="V" horiz-adv-x="1292" d="M-16 1470h370l287 -972l299 972h369l-512 -1470h-322z" />
<glyph unicode="W" horiz-adv-x="1855" d="M-16 1470h360l240 -944l190 944h338l184 -942l238 942h362l-434 -1470h-323l-201 899l-190 -899h-326z" />
<glyph unicode="X" d="M4 0l481 774l-432 696h398l237 -405l238 405h397l-434 -696l483 -774h-407l-277 475l-276 -475h-408z" />
<glyph unicode="Y" horiz-adv-x="1323" d="M23 1470h395l258 -561l287 561h393l-506 -919v-551h-348v547z" />
<glyph unicode="Z" horiz-adv-x="1312" d="M10 0h1241v299h-776l760 918v253h-1186v-294h739l-778 -940v-236z" />
<glyph unicode="[" horiz-adv-x="727" d="M102 0v1470h523v-270h-197v-930h197v-270h-523z" />
<glyph unicode="\" horiz-adv-x="778" d="M43 1468l406 -1540h286l-405 1540h-287z" />
<glyph unicode="]" horiz-adv-x="727" d="M102 0v270h197v930h-197v270h523v-1470h-523z" />
<glyph unicode="^" horiz-adv-x="675" d="M27 999l241 494h158l223 -494h-188l-119 277l-125 -277h-190z" />
<glyph unicode="_" horiz-adv-x="1126" d="M2 -72h1122v-278h-1122v278z" />
<glyph unicode="`" horiz-adv-x="665" d="M109 1532l260 -369h188l-131 369h-317z" />
<glyph unicode="a" horiz-adv-x="1351" d="M-14 0l503 1470h347l520 -1470h-365l-96 303h-463l-94 -303h-352zM518 578h291l-143 473z" />
<glyph unicode="b" horiz-adv-x="1447" d="M147 0v1470h713q137 0 225.5 -36.5t139.5 -96t69 -131.5q17 -65 17 -129v-14q-4 -201 -127 -272q80 -31 131 -111t51 -223q0 -152 -52 -242t-135 -137t-184.5 -62.5t-199.5 -15.5h-648zM496 289h356q92 0 128 39t36 127q0 61 -12.5 97t-32 56.5t-43 26.5t-45.5 6h-387 v-352zM496 903h335q78 0 107 42t29 114q0 70 -20.5 103.5t-82.5 33.5h-368v-293z" />
<glyph unicode="c" horiz-adv-x="1464" d="M92 752q0 172 41 310t127 235.5t218 149.5t315 52q184 0 300.5 -46t186.5 -119.5t100.5 -168t42.5 -188.5h-329q-12 49 -26.5 94t-44.5 78t-80 52.5t-134 19.5q-102 0 -172 -27t-113 -86t-61.5 -156.5t-18.5 -238.5q0 -143 26 -232.5t72 -139.5t112.5 -68.5t148.5 -18.5 q84 0 133 20.5t77.5 58.5t45 90t33.5 118h340q-12 -115 -50.5 -218.5t-112 -181.5t-190 -124t-284.5 -46q-193 0 -327 52.5t-217 151.5t-121 244.5t-38 332.5z" />
<glyph unicode="d" horiz-adv-x="1501" d="M147 0v1470h619q174 0 295 -50t196.5 -145t110.5 -231.5t35 -310.5q0 -197 -43 -336t-132 -227t-223.5 -129t-318.5 -41h-539zM494 289h243q92 0 153.5 23.5t97.5 78.5t51.5 145.5t15.5 223.5q0 125 -19.5 208t-58.5 131t-94.5 67.5t-128.5 19.5h-260v-897z" />
<glyph unicode="e" d="M147 0v1470h1147v-284h-798v-271h735v-284h-735v-342h819v-289h-1168z" />
<glyph unicode="f" horiz-adv-x="1271" d="M147 0v1470h1090v-284h-741v-289h624v-283h-624v-614h-349z" />
<glyph unicode="g" horiz-adv-x="1523" d="M92 752q0 747 703 747h2q174 0 294.5 -45t195.5 -119.5t107.5 -171t32.5 -198.5h-356q0 45 -7 92t-35 84t-83 60.5t-151 23.5t-163 -25.5t-109 -81t-61.5 -143.5t-19.5 -211q0 -135 16.5 -231.5t58.5 -156t111.5 -87t176.5 -27.5q61 0 116.5 15.5t96.5 48t64 84.5 q20 47 20 111v11h-328v271h678v-803h-283v150q-31 -53 -76.5 -87t-100 -53.5t-113 -27t-113.5 -7.5q-193 0 -322 59.5t-207.5 164t-111.5 247t-33 306.5z" />
<glyph unicode="h" horiz-adv-x="1480" d="M147 0v1470h349v-548h524v548h348v-1470h-348v635h-524v-635h-349z" />
<glyph unicode="i" horiz-adv-x="651" d="M168 0v1470h346v-1470h-346z" />
<glyph unicode="j" horiz-adv-x="1134" d="M43 422v149h324v-141q0 -55 7 -89t24.5 -52.5t46 -24.5t71.5 -6q55 0 88 9t48.5 29.5t19.5 53.5t4 82v1038h346v-1069q0 -86 -23.5 -164.5t-79 -139t-147.5 -95.5t-229 -35q-250 0 -375 105.5t-125 349.5z" />
<glyph unicode="k" horiz-adv-x="1413" d="M147 0v1470h349v-542l493 542h447l-584 -608l608 -862h-428l-422 627l-114 -115v-512h-349z" />
<glyph unicode="l" horiz-adv-x="1196" d="M147 0v1470h349v-1181h696v-289h-1045z" />
<glyph unicode="m" horiz-adv-x="1753" d="M147 0h336v958l240 -958h336l241 961v-961h336v1470h-471l-272 -1105l-287 1105h-459v-1470z" />
<glyph unicode="n" horiz-adv-x="1488" d="M147 0h349v895l532 -895h344v1470h-346v-888l-537 888h-342v-1470z" />
<glyph unicode="o" horiz-adv-x="1622" d="M92 725q0 215 54.5 363.5t152.5 239.5t233.5 131t298.5 40q180 0 312.5 -54t218.5 -153.5t127 -242t41 -318.5q0 -389 -186.5 -575.5t-565.5 -186.5q-147 0 -273 47t-218 140.5t-143.5 236t-51.5 332.5zM442 725q0 -225 86 -351t271 -126q129 0 204.5 41t115.5 109.5 t51.5 157.5t11.5 187q0 135 -24.5 226.5t-71 146.5t-112 80t-145.5 25q-117 0 -191.5 -32t-118.5 -94.5t-60.5 -155.5t-16.5 -214z" />
<glyph unicode="p" horiz-adv-x="1366" d="M147 0v1470h730q96 0 178 -29.5t141 -87t92 -143t33 -198.5q0 -55 -15.5 -133t-66.5 -149t-150.5 -120t-265.5 -49h-327v-561h-349zM496 831h325q41 0 71 7.5t48 27t26.5 56.5t8.5 96q0 57 -9.5 91t-31 51.5t-54 22.5t-77.5 5h-307v-357z" />
<glyph unicode="q" horiz-adv-x="1628" d="M92 723q0 217 54.5 364.5t152.5 238.5t233.5 131t298.5 40q180 0 312.5 -54t218.5 -153.5t127 -242t41 -318.5q0 -147 -23.5 -246.5t-54.5 -167.5q-16 -33 -35.5 -63.5t-44.5 -58.5l150 -150l-168 -178l-180 174q-45 -20 -97.5 -34.5t-103.5 -23t-99.5 -11.5t-85.5 -3 q-143 0 -269 43t-221 134.5t-150.5 234.5t-55.5 344zM442 723q0 -129 26 -221t73 -151.5t112.5 -87t145.5 -27.5q53 0 86 5t67 13l-137 135l172 178l146 -141q29 61 39 142t10 173q0 135 -24.5 226.5t-71 147.5t-112 81t-145.5 25q-117 0 -191.5 -33t-118.5 -95.5 t-60.5 -155.5t-16.5 -214z" />
<glyph unicode="r" horiz-adv-x="1474" d="M147 0v1470h732q80 0 169 -13t163.5 -57t122.5 -130t48 -232q0 -135 -58 -215t-150 -108q41 -16 68.5 -53t44 -82t24.5 -92.5t12 -86.5q6 -66 9 -114.5t10.5 -94t22.5 -90.5t46 -102h-362q-33 49 -44.5 115.5t-15.5 136.5t-10 137.5t-29 118.5q-10 25 -35.5 39t-78.5 14 h-340v-561h-349zM496 838h338q66 0 104.5 11t58 33.5t25.5 56.5t6 81q0 49 -7 81t-25.5 51t-51.5 26.5t-82 7.5h-366v-348z" />
<glyph unicode="s" horiz-adv-x="1392" d="M74 530h338q4 -63 18 -116.5t48 -91t89.5 -59t141.5 -21.5q141 0 204.5 42t63.5 162q0 63 -25.5 91t-79.5 45q-61 18 -148 28.5t-198 34.5q-86 20 -159.5 46t-129 73t-86 123t-30.5 198q0 90 27.5 157t73.5 113t106.5 74.5t124 44t127 20.5t116.5 5q180 0 293 -45 t175.5 -116.5t84 -162t21.5 -178.5h-332q-8 37 -12 82t-25 78q-16 29 -60 52.5t-139 23.5q-74 0 -120.5 -10.5t-73.5 -31t-37 -53t-10 -77.5q0 -53 29.5 -76.5t109.5 -40.5q84 -18 170 -30.5t166 -30t149.5 -46t122 -78.5t82 -129t29.5 -196q0 -465 -625 -465 q-303 0 -461.5 137.5t-158.5 423.5z" />
<glyph unicode="t" horiz-adv-x="1200" d="M6 1186v284h1188v-284h-420v-1186h-348v1186h-420z" />
<glyph unicode="u" horiz-adv-x="1468" d="M147 492v978h349v-997q0 -55 11 -96t42 -68.5t84 -41t137 -13.5q141 0 189.5 53t48.5 158v1005h348v-983q0 -139 -42 -236t-120 -159.5t-191.5 -91.5t-254.5 -29q-160 0 -274 36t-186.5 103.5t-106.5 164t-34 217.5z" />
<glyph unicode="v" horiz-adv-x="1292" d="M-16 1470h370l287 -972l299 972h369l-512 -1470h-322z" />
<glyph unicode="w" horiz-adv-x="1855" d="M-16 1470h360l240 -944l190 944h338l184 -942l238 942h362l-434 -1470h-323l-201 899l-190 -899h-326z" />
<glyph unicode="x" d="M4 0l481 774l-432 696h398l237 -405l238 405h397l-434 -696l483 -774h-407l-277 475l-276 -475h-408z" />
<glyph unicode="y" horiz-adv-x="1323" d="M23 1470h395l258 -561l287 561h393l-506 -919v-551h-348v547z" />
<glyph unicode="z" horiz-adv-x="1312" d="M10 0h1241v299h-776l760 918v253h-1186v-294h739l-778 -940v-236z" />
<glyph unicode="{" horiz-adv-x="2140" d="M115 604l772 772h422l-625 -614h1341v-316h-1341l625 -614h-420z" />
<glyph unicode="|" horiz-adv-x="573" d="M201 -303v1767h172v-1767h-172z" />
<glyph unicode="}" horiz-adv-x="2140" d="M115 446v316h1341l-625 614h420l774 -772l-772 -772h-422l625 614h-1341z" />
<glyph unicode="~" horiz-adv-x="1187" d="M150 389q6 61 18 119.5t36.5 104.5t65.5 75t107 29q63 0 124.5 -32t118 -71t104.5 -70.5t85 -31.5q35 0 45 28.5t14 57.5q2 12 4 28.5t9 45.5h157q-6 -63 -17 -121.5t-35.5 -105t-66.5 -74t-108 -27.5q-72 0 -133.5 32t-113.5 68.5t-99 68.5t-90 32q-18 0 -28.5 -20.5 t-17.5 -47t-10.5 -52.5t-5.5 -36h-163z" />
<glyph unicode="&#xa1;" horiz-adv-x="573" d="M113 -14l53 626h254l57 -626v-383h-364v383zM119 739v334h350v-334h-350z" />
<glyph unicode="&#xa2;" horiz-adv-x="1208" d="M80 748q0 268 115.5 402t336.5 167v117h181v-115q25 -4 54.5 -10t62 -15.5t65.5 -24t61 -32.5q82 -57 119 -135t47 -207h-303q-8 61 -26.5 112.5t-79.5 71.5v-673q63 16 84.5 59t21.5 92v68h309q-2 -117 -34.5 -201t-104.5 -143q-66 -53 -136.5 -76t-139.5 -33v-174h-181 v174q-76 8 -155.5 38t-146 94.5t-108.5 172t-42 271.5zM399 756q0 -154 30.5 -243t102.5 -107v673q-29 -10 -53 -31.5t-41.5 -59.5t-28 -95t-10.5 -137z" />
<glyph unicode="&#xa3;" horiz-adv-x="1310" d="M92 606h207q29 -45 56.5 -100t27.5 -109q0 -29 -7 -41t-24 -26q-74 -20 -127 -50t-112 -77l120 -230q53 33 110.5 57.5t109.5 24.5q57 0 108 -12t99.5 -25.5t94.5 -25.5t95 -12q125 0 198.5 51t111.5 126.5t48.5 163.5t10.5 164h-324v-88q0 -39 -6 -67.5t-19.5 -45 t-40.5 -16.5q-51 0 -98 19.5t-94 29.5q29 47 38 93.5t9 103.5q0 49 -12 92h262v176h-328q-41 80 -60.5 142.5t-19.5 103.5q0 92 52.5 135t138.5 43q72 0 114.5 -57t42.5 -172h310q0 84 -19.5 169t-71 153.5t-142.5 111.5t-232 43q-98 0 -195.5 -26.5t-174.5 -82t-124 -141.5 t-47 -205q0 -111 45 -217h-131v-176z" />
<glyph unicode="&#xa4;" horiz-adv-x="1585" d="M49 467v205h135q-2 10 -2 18v21v41v32h-133v205h156q49 240 216 375t462 135q184 0 300.5 -46t186.5 -119.5t100.5 -168t42.5 -188.5h-329q-12 49 -26.5 94t-44.5 78t-80 52.5t-134 19.5q-145 0 -224 -52.5t-114 -179.5h471v-205h-495q-2 -8 -2 -16v-18v-37v-41h497v-205 h-469q18 -66 50 -107t74 -64.5t94.5 -32.5t111.5 -9q84 0 133 20.5t78 58.5t45 90t33 118h340q-12 -115 -50 -218.5t-112 -181.5t-190.5 -124t-284.5 -46q-305 0 -466 127t-210 369h-160z" />
<glyph unicode="&#xa5;" horiz-adv-x="1187" d="M2 1470h395l185 -448l209 448h395l-434 -802v-97h184v-145h-184v-61h184v-146h-184v-219h-353v219h-184v146h184v61h-184v145h184v99z" />
<glyph unicode="&#xa7;" horiz-adv-x="1228" d="M100 657q0 92 49.5 170t126.5 115q-37 35 -65.5 91.5t-28.5 142.5q0 88 33 148t93.5 98t144.5 54.5t186 16.5q135 0 217 -33t128 -88t64.5 -129t24.5 -153h-280q-8 43 -13.5 74.5t-21 53t-44 33t-81.5 11.5q-57 0 -102.5 -21.5t-45.5 -69.5q0 -16 5.5 -30.5t23.5 -32.5 t56 -46t106 -71l229 -149q31 -20 69 -49t72.5 -66t58 -84t23.5 -102q0 -86 -42 -172t-121 -133l12 -11q53 -45 73.5 -101t20.5 -128q0 -100 -35 -166t-96 -104.5t-147 -55t-189 -16.5q-104 0 -190 21.5t-147.5 66.5t-95.5 114.5t-34 168.5v69h297q4 -53 10.5 -90t24.5 -60.5 t53 -34.5t99 -11q86 0 118.5 30.5t32.5 69.5q0 18 -13.5 35.5t-32.5 33t-38.5 29t-32.5 23.5q-20 14 -71.5 48t-113.5 76t-125.5 85t-108.5 75q-66 49 -101 107.5t-35 146.5zM393 664q0 -31 37 -56l285 -194q10 -8 16 -9.5t14 -1.5q16 0 34 10.5t31 26t21.5 35t8.5 37.5 q0 23 -35 47l-285 201q-18 12 -41 12q-6 0 -20.5 -9t-28.5 -24.5t-25.5 -35t-11.5 -39.5z" />
<glyph unicode="&#xa8;" horiz-adv-x="737" d="M82 1196v301h262v-301h-262zM393 1196v301h262v-301h-262z" />
<glyph unicode="&#xa9;" horiz-adv-x="1146" d="M47 954q0 106 41 201.5t110.5 167.5t164 114t201 44t201.5 -36t169 -106.5t118 -161t48 -198.5q4 -113 -37 -212t-113.5 -174t-171 -119t-209.5 -44q-109 0 -203 42t-165.5 113.5t-112.5 167t-41 201.5zM203 950q0 -76 29.5 -143.5t79.5 -117.5t118 -79.5t143 -29.5 q78 0 148 31.5t122 86t80.5 125t26.5 150.5q-4 76 -35.5 142.5t-84 114.5t-121 74.5t-146.5 24.5q-76 -2 -141.5 -33.5t-114.5 -83t-76.5 -119t-27.5 -143.5zM285 956q0 57 20.5 111.5t57 95.5t87 67.5t109.5 31.5q74 4 138.5 -23t129.5 -92l-100 -100q-45 43 -82 59t-80 14 q-59 -4 -100 -53t-41 -119q0 -61 43 -106t108 -49q39 -2 75 15t79 64l105 -98q-127 -127 -271 -119q-59 4 -110.5 30t-88 67t-58 93t-21.5 111z" />
<glyph unicode="&#xaa;" horiz-adv-x="880" d="M94 1034q0 88 37 131t92.5 60.5t123 20.5t128.5 11q23 4 41.5 20.5t18.5 45.5q0 25 -23 51.5t-80 26.5q-41 0 -65.5 -15.5t-30.5 -52.5l-2 -4v-4q0 -8 -2 -18h-211v20q0 100 73.5 162.5t249.5 62.5q147 0 222 -55t75 -192v-293q0 -18 7.5 -22.5t42.5 -4.5v-176h-113 q-57 0 -83 22.5t-36 63.5q-31 -66 -83 -83t-114 -17q-141 0 -204.5 61.5t-63.5 177.5zM289 1026q0 -27 10 -42t25.5 -23.5t33 -10.5t33.5 -2q72 0 108 42.5t36 99.5v59q-35 -14 -72 -18.5t-80 -12.5q-49 -6 -71.5 -30.5t-22.5 -61.5z" />
<glyph unicode="&#xab;" horiz-adv-x="1064" d="M76 526l270 -428h287l-271 428l289 441h-282zM432 526l273 -428h286l-272 428l291 441h-283z" />
<glyph unicode="&#xac;" horiz-adv-x="1679" d="M127 655v172h1425v-626h-163v454h-1262z" />
<glyph unicode="&#xad;" horiz-adv-x="778" d="M125 420v303h528v-303h-528z" />
<glyph unicode="&#xae;" horiz-adv-x="1146" d="M51 965q2 106 44 200.5t113 164t165 110.5t200 41t199.5 -39t164.5 -107.5t113 -161t46 -196.5q2 -109 -38 -208t-112 -175t-168 -120t-207 -44q-109 0 -204 43t-165.5 117t-111.5 170t-39 205zM205 961q0 -78 28.5 -147t77.5 -121t116 -82.5t142 -30.5q78 0 147.5 31.5 t121 85t80 125t26.5 149.5q-4 74 -33.5 138.5t-79 113.5t-114 76.5t-137.5 27.5q-76 0 -143.5 -28.5t-119 -78t-82 -117t-30.5 -142.5zM385 696v549h211q16 0 49 -4t65.5 -20.5t57.5 -51t25 -96.5q2 -63 -23 -98t-65 -53l98 -226h-131l-82 209h-88v-209h-117zM500 1014h90 q33 0 60.5 8t27.5 55q0 29 -22.5 42.5t-57.5 13.5h-98v-119z" />
<glyph unicode="&#xaf;" horiz-adv-x="778" d="M57 1231v237h664v-237h-664z" />
<glyph unicode="&#xb0;" horiz-adv-x="1054" d="M139 1077q0 80 31 150.5t83 125t124 85t151 30.5q80 0 151 -30.5t123 -85t82.5 -125t30.5 -150.5t-30.5 -150.5t-83.5 -123.5t-124 -84t-151 -31t-150.5 31t-122.5 84t-83 123.5t-31 150.5zM367 1077q0 -66 47 -112.5t114 -46.5q68 0 114 45.5t46 113.5t-47 115t-113 47 q-68 0 -114.5 -47t-46.5 -115z" />
<glyph unicode="&#xb1;" horiz-adv-x="1269" d="M115 -16h1040v-324h-1040v324zM115 418v319h362v324h316v-324h362v-319h-362v-316h-316v316h-362z" />
<glyph unicode="&#xb4;" horiz-adv-x="634" d="M96 1163h195l248 369h-318z" />
<glyph unicode="&#xb6;" horiz-adv-x="1075" d="M98 956q0 53 14.5 112.5t43 115t72.5 104.5t104 82q98 55 210.5 73.5t248.5 18.5h186v-125h-141v-1720h-123v1720h-45l2 -1720h-135v870q-90 6 -170 45t-139.5 101.5t-93.5 145.5t-34 177z" />
<glyph unicode="&#xb7;" horiz-adv-x="942" d="M285 518v379h372v-379h-372z" />
<glyph unicode="&#xb8;" horiz-adv-x="532" d="M51 -240h164v-26q0 -25 7 -42.5t32 -17.5q20 0 28.5 25t8.5 57q0 18 -6 29.5t-14.5 16.5t-16.5 6.5t-12 1.5h-84l12 219h166l10 -99q55 -8 95 -47t40 -131q0 -109 -63.5 -152.5t-165.5 -43.5q-45 0 -82 9t-63.5 32.5t-41 62.5t-14.5 100z" />
<glyph unicode="&#xba;" horiz-adv-x="880" d="M78 1165q0 113 28.5 186.5t77.5 117.5t116 62.5t144 18.5q180 0 269.5 -91t89.5 -288q0 -84 -18.5 -152.5t-61.5 -119.5t-112.5 -78.5t-172.5 -27.5q-180 0 -270 90t-90 282zM301 1174q0 -119 30.5 -170.5t100.5 -51.5q94 0 121 59.5t27 176.5q0 100 -30 150.5t-99 50.5 q-78 0 -114 -45.5t-36 -169.5z" />
<glyph unicode="&#xbb;" horiz-adv-x="1064" d="M78 98h284l285 441l-270 428h-283l268 -428zM432 98h283l293 441l-273 428h-284l268 -428z" />
<glyph unicode="&#xbf;" horiz-adv-x="1064" d="M47 12q0 104 37 174t88 123q45 47 95 86t89 88q14 18 25.5 33.5t19 31t11.5 34t6 45.5h315q0 -82 -15.5 -137.5t-40 -94.5t-54 -68.5l-58.5 -58.5q-31 -31 -64.5 -59.5t-61 -59t-45 -67.5t-17.5 -86q0 -158 139 -158q53 0 88 12.5t56.5 43t29.5 83t8 129.5h324v-98 q0 -94 -30.5 -173t-93 -137t-158 -91t-222.5 -33q-90 0 -174 19.5t-150.5 68.5t-106.5 134t-40 216zM399 739v334h351v-334h-351z" />
<glyph unicode="&#xc0;" horiz-adv-x="1353" d="M-14 0h352l94 303h463l96 -303h365l-520 1470h-33l-58 95h-274l55 -95h-37zM518 578l148 473l143 -473h-291z" />
<glyph unicode="&#xc1;" horiz-adv-x="1353" d="M-14 0h352l94 303h463l96 -303h365l-520 1470h-33l55 95h-274l-58 -95h-37zM518 578l148 473l143 -473h-291z" />
<glyph unicode="&#xc2;" horiz-adv-x="1353" d="M-14 0l487 1421h-43l35 144h395l33 -144h-41l504 -1421h-365l-96 303h-463l-94 -303h-352zM518 578h291l-143 473z" />
<glyph unicode="&#xc4;" horiz-adv-x="1351" d="M-14 0l465 1358h-60v207h248v-95h47v95h248v-207h-60l482 -1358h-365l-96 303h-463l-94 -303h-352zM518 578h291l-143 473z" />
<glyph unicode="&#xc6;" horiz-adv-x="2193" d="M-14 0l923 1470h1239v-294h-807v-256h736v-293h-736v-328h820v-299h-1160v346h-434l-205 -346h-376zM727 623h274v471z" />
<glyph unicode="&#xc7;" horiz-adv-x="1480" d="M78 752q0 172 41 310t127 235.5t218 149.5t314 52q184 0 301 -46t186.5 -119.5t100.5 -168t43 -188.5h-330q-12 49 -26.5 92t-44 75t-79.5 49t-134 17q-102 0 -172 -24.5t-113 -83t-61.5 -153.5t-18.5 -236q0 -102 18.5 -186.5t60.5 -144.5t109.5 -93t163.5 -33 q78 0 128.5 18.5t82 53t50 88t34.5 125.5h340q-10 -104 -39.5 -197.5t-87 -168.5t-148.5 -125t-224 -66v-252h-259v252q-311 37 -446 232.5t-135 535.5z" />
<glyph unicode="&#xc8;" d="M147 0h1168v289h-819v342h735v284h-735v271h798v284h-266l-57 95h-570l56 -95h-310v-1470z" />
<glyph unicode="&#xc9;" d="M147 0v1470h271l57 95h569l-55 -95h305v-284h-798v-271h735v-284h-735v-342h819v-289h-1168z" />
<glyph unicode="&#xca;" d="M147 0h1168v289h-819v342h735v284h-735v271h798v284h-278l-21 95h-551l-20 -95h-277v-1470z" />
<glyph unicode="&#xcb;" d="M147 0h1168v289h-819v342h735v284h-735v271h798v284h-303v95h-248v-95h-47v95h-247v-95h-302v-1470z" />
<glyph unicode="&#xcc;" horiz-adv-x="651" d="M145 1565h275l57 -95h37v-1470h-346v1470h33z" />
<glyph unicode="&#xcd;" horiz-adv-x="651" d="M168 0v1470h33l57 95h274l-55 -95h37v-1470h-346z" />
<glyph unicode="&#xce;" horiz-adv-x="608" d="M33 1550l129 365h282l131 -365h-186l-84 123l-84 -123h-188zM131 0v1470h346v-1470h-346z" />
<glyph unicode="&#xcf;" horiz-adv-x="608" d="M31 1358v207h248v-95h47v95h247v-207h-96v-1358h-346v1358h-100z" />
<glyph unicode="&#xd2;" horiz-adv-x="1622" d="M92 725q0 162 31 286t89 213t139 146t184 88l-62 107h569l64 -107q217 -72 320.5 -261.5t103.5 -465.5q0 -389 -186.5 -575.5t-565.5 -186.5q-147 0 -273 47t-218 140.5t-143.5 236t-51.5 332.5zM442 725q0 -225 86 -351t271 -126q129 0 204.5 41t115.5 109.5t51.5 157.5 t11.5 187q0 135 -24.5 226.5t-71 146.5t-112 80t-145.5 25q-117 0 -191.5 -32t-118.5 -94.5t-60.5 -155.5t-16.5 -214z" />
<glyph unicode="&#xd3;" horiz-adv-x="1622" d="M92 725q0 170 34 296t96.5 216t151.5 146.5t197 84.5l58 97h569l-68 -115q207 -78 303.5 -263.5t96.5 -455.5q0 -389 -186.5 -575.5t-565.5 -186.5q-147 0 -273 47t-218 140.5t-143.5 236t-51.5 332.5zM442 725q0 -225 86 -351t271 -126q129 0 204.5 41t115.5 109.5 t51.5 157.5t11.5 187q0 135 -24.5 226.5t-71 146.5t-112 80t-145.5 25q-117 0 -191.5 -32t-118.5 -94.5t-60.5 -155.5t-16.5 -214z" />
<glyph unicode="&#xd4;" horiz-adv-x="1613" d="M92 725q0 172 35 300t99.5 219t155.5 146.5t202 82.5l20 92h432l21 -90q244 -61 358.5 -256t114.5 -488q0 -389 -186.5 -575.5t-565.5 -186.5q-147 0 -273 47t-218 140.5t-143.5 236t-51.5 332.5zM442 725q0 -225 86 -351t271 -126q129 0 204.5 41t115.5 109.5 t51.5 157.5t11.5 187q0 135 -24.5 226.5t-71 146.5t-112 80t-145.5 25q-117 0 -191.5 -32t-118.5 -94.5t-60.5 -155.5t-16.5 -214z" />
<glyph unicode="&#xd6;" horiz-adv-x="1622" d="M92 725q0 162 31 286t89 213t140 147.5t185 88.5v105h247v-66h47v66h248v-99q231 -66 341 -258t110 -477q0 -389 -186.5 -575.5t-565.5 -186.5q-147 0 -273 47t-218 140.5t-143.5 236t-51.5 332.5zM442 725q0 -225 86 -351t271 -126q129 0 204.5 41t115.5 109.5 t51.5 157.5t11.5 187q0 135 -24.5 226.5t-71 146.5t-112 80t-145.5 25q-117 0 -191.5 -32t-118.5 -94.5t-60.5 -155.5t-16.5 -214z" />
<glyph unicode="&#xd8;" horiz-adv-x="1638" d="M63 -23h269l76 91q61 -35 113 -55.5t99.5 -30t90.5 -11.5t84 -2q217 0 360 64.5t227 172t118 245t34 282.5q0 113 -15.5 201t-38 154.5t-48 110.5t-48.5 71l191 229h-283l-71 -90q-92 53 -185.5 71.5t-201.5 18.5q-358 0 -549 -186.5t-191 -587.5q0 -154 32 -273.5 t122 -238.5zM420 705q0 121 21.5 216t68.5 159.5t122 98t181 33.5q51 0 104.5 -7t98.5 -36l2 -2l-551 -682q-47 106 -47 220zM610 313l553 684q23 -39 32 -91t9 -156q0 -229 -93 -358.5t-277 -129.5q-72 0 -126.5 11.5t-97.5 39.5z" />
<glyph unicode="&#xd9;" horiz-adv-x="1468" d="M147 492v978h349v-997q0 -55 11 -96t42 -68.5t84 -41t137 -13.5q141 0 189.5 53t48.5 158v1005h348v-983q0 -139 -42 -236t-120 -159.5t-191.5 -91.5t-254.5 -29q-160 0 -274 36t-186.5 103.5t-106.5 164t-34 217.5zM502 1565h383l106 -176h-387z" />
<glyph unicode="&#xda;" horiz-adv-x="1468" d="M147 492v978h349v-997q0 -55 11 -96t42 -68.5t84 -41t137 -13.5q141 0 189.5 53t48.5 158v1005h348v-983q0 -139 -42 -236t-120 -159.5t-191.5 -91.5t-254.5 -29q-160 0 -274 36t-186.5 103.5t-106.5 164t-34 217.5zM557 1389l107 176h383l-103 -176h-387z" />
<glyph unicode="&#xdb;" horiz-adv-x="1454" d="M147 492v978h349v-997q0 -55 11 -96t42 -68.5t84 -41t137 -13.5q141 0 189.5 53t48.5 158v1005h348v-983q0 -139 -42 -236t-120 -159.5t-191.5 -91.5t-254.5 -29q-160 0 -274 36t-186.5 103.5t-106.5 164t-34 217.5zM528 1389l45 176h365l37 -176h-447z" />
<glyph unicode="&#xdc;" horiz-adv-x="1468" d="M147 492v978h332v95h248v-207h-231v-885q0 -55 11 -96t42 -68.5t84 -41t137 -13.5q141 0 189.5 53t48.5 158v893h-234v207h248v-95h334v-983q0 -139 -42 -236t-120 -159.5t-191.5 -91.5t-254.5 -29q-160 0 -274 36t-186.5 103.5t-106.5 164t-34 217.5z" />
<glyph unicode="&#xdd;" horiz-adv-x="1323" d="M23 1470h395l258 -561l287 561h393l-506 -919v-551h-348v547zM475 1389l107 176h383l-103 -176h-387z" />
<glyph unicode="&#xdf;" horiz-adv-x="1269" d="M31 848v244h137v71q0 98 40 164t104.5 103.5t145.5 54t165 16.5q111 0 186.5 -27.5t122.5 -71.5t68.5 -98.5t21.5 -105.5q0 -84 -38 -135t-95 -98q-10 -8 -26.5 -22.5t-16.5 -29.5q-6 -12 11 -29.5t49 -39t75 -47t86 -58.5q63 -49 97 -125.5t34 -187.5q0 -121 -44 -205 t-116.5 -135t-167 -73.5t-194.5 -22.5q-31 0 -66 2t-88 6v240q53 -4 81 -5.5t54 -1.5q41 0 79 7.5t65.5 27t44 57t16.5 99.5q0 57 -22.5 100t-57 79t-74.5 67.5t-75 64.5t-57.5 71t-22.5 87q0 55 25.5 93t57.5 72t57.5 65.5t25.5 74.5q0 29 -33 48.5t-84 19.5q-68 0 -84 -26 t-16 -73v-1165h-334v848h-137z" />
<glyph unicode="&#xe0;" horiz-adv-x="1353" d="M-14 0h352l94 303h463l96 -303h365l-520 1470h-33l-58 95h-274l55 -95h-37zM518 578l148 473l143 -473h-291z" />
<glyph unicode="&#xe1;" horiz-adv-x="1353" d="M-14 0h352l94 303h463l96 -303h365l-520 1470h-33l55 95h-274l-58 -95h-37zM518 578l148 473l143 -473h-291z" />
<glyph unicode="&#xe2;" horiz-adv-x="1353" d="M-14 0l487 1421h-43l35 144h395l33 -144h-41l504 -1421h-365l-96 303h-463l-94 -303h-352zM518 578h291l-143 473z" />
<glyph unicode="&#xe4;" horiz-adv-x="1351" d="M-14 0l465 1358h-60v207h248v-95h47v95h248v-207h-60l482 -1358h-365l-96 303h-463l-94 -303h-352zM518 578h291l-143 473z" />
<glyph unicode="&#xe6;" horiz-adv-x="2193" d="M-14 0l923 1470h1239v-294h-807v-256h736v-293h-736v-328h820v-299h-1160v346h-434l-205 -346h-376zM727 623h274v471z" />
<glyph unicode="&#xe7;" horiz-adv-x="1480" d="M78 752q0 172 41 310t127 235.5t218 149.5t314 52q184 0 301 -46t186.5 -119.5t100.5 -168t43 -188.5h-330q-12 49 -26.5 92t-44 75t-79.5 49t-134 17q-102 0 -172 -24.5t-113 -83t-61.5 -153.5t-18.5 -236q0 -102 18.5 -186.5t60.5 -144.5t109.5 -93t163.5 -33 q78 0 128.5 18.5t82 53t50 88t34.5 125.5h340q-10 -104 -39.5 -197.5t-87 -168.5t-148.5 -125t-224 -66v-252h-259v252q-311 37 -446 232.5t-135 535.5z" />
<glyph unicode="&#xe8;" d="M147 0h1168v289h-819v342h735v284h-735v271h798v284h-266l-57 95h-570l56 -95h-310v-1470z" />
<glyph unicode="&#xe9;" d="M147 0v1470h271l57 95h569l-55 -95h305v-284h-798v-271h735v-284h-735v-342h819v-289h-1168z" />
<glyph unicode="&#xea;" d="M147 0h1168v289h-819v342h735v284h-735v271h798v284h-278l-21 95h-551l-20 -95h-277v-1470z" />
<glyph unicode="&#xeb;" d="M147 0h1168v289h-819v342h735v284h-735v271h798v284h-303v95h-248v-95h-47v95h-247v-95h-302v-1470z" />
<glyph unicode="&#xec;" horiz-adv-x="651" d="M145 1565h275l57 -95h37v-1470h-346v1470h33z" />
<glyph unicode="&#xed;" horiz-adv-x="651" d="M168 0v1470h33l57 95h274l-55 -95h37v-1470h-346z" />
<glyph unicode="&#xee;" horiz-adv-x="608" d="M33 1550l129 365h282l131 -365h-186l-84 123l-84 -123h-188zM131 0v1470h346v-1470h-346z" />
<glyph unicode="&#xef;" horiz-adv-x="608" d="M31 1358v207h248v-95h47v95h247v-207h-96v-1358h-346v1358h-100z" />
<glyph unicode="&#xf2;" horiz-adv-x="1622" d="M92 725q0 162 31 286t89 213t139 146t184 88l-62 107h569l64 -107q217 -72 320.5 -261.5t103.5 -465.5q0 -389 -186.5 -575.5t-565.5 -186.5q-147 0 -273 47t-218 140.5t-143.5 236t-51.5 332.5zM442 725q0 -225 86 -351t271 -126q129 0 204.5 41t115.5 109.5t51.5 157.5 t11.5 187q0 135 -24.5 226.5t-71 146.5t-112 80t-145.5 25q-117 0 -191.5 -32t-118.5 -94.5t-60.5 -155.5t-16.5 -214z" />
<glyph unicode="&#xf3;" horiz-adv-x="1622" d="M92 725q0 170 34 296t96.5 216t151.5 146.5t197 84.5l58 97h569l-68 -115q207 -78 303.5 -263.5t96.5 -455.5q0 -389 -186.5 -575.5t-565.5 -186.5q-147 0 -273 47t-218 140.5t-143.5 236t-51.5 332.5zM442 725q0 -225 86 -351t271 -126q129 0 204.5 41t115.5 109.5 t51.5 157.5t11.5 187q0 135 -24.5 226.5t-71 146.5t-112 80t-145.5 25q-117 0 -191.5 -32t-118.5 -94.5t-60.5 -155.5t-16.5 -214z" />
<glyph unicode="&#xf4;" horiz-adv-x="1613" d="M92 725q0 172 35 300t99.5 219t155.5 146.5t202 82.5l20 92h432l21 -90q244 -61 358.5 -256t114.5 -488q0 -389 -186.5 -575.5t-565.5 -186.5q-147 0 -273 47t-218 140.5t-143.5 236t-51.5 332.5zM442 725q0 -225 86 -351t271 -126q129 0 204.5 41t115.5 109.5 t51.5 157.5t11.5 187q0 135 -24.5 226.5t-71 146.5t-112 80t-145.5 25q-117 0 -191.5 -32t-118.5 -94.5t-60.5 -155.5t-16.5 -214z" />
<glyph unicode="&#xf6;" horiz-adv-x="1622" d="M92 725q0 162 31 286t89 213t140 147.5t185 88.5v105h247v-66h47v66h248v-99q231 -66 341 -258t110 -477q0 -389 -186.5 -575.5t-565.5 -186.5q-147 0 -273 47t-218 140.5t-143.5 236t-51.5 332.5zM442 725q0 -225 86 -351t271 -126q129 0 204.5 41t115.5 109.5 t51.5 157.5t11.5 187q0 135 -24.5 226.5t-71 146.5t-112 80t-145.5 25q-117 0 -191.5 -32t-118.5 -94.5t-60.5 -155.5t-16.5 -214z" />
<glyph unicode="&#xf7;" horiz-adv-x="1187" d="M61 426v305h1065v-305h-1065zM416 0v342h346v-342h-346zM416 778v344h346v-344h-346z" />
<glyph unicode="&#xf8;" horiz-adv-x="1638" d="M63 -23h269l76 91q61 -35 113 -55.5t99.5 -30t90.5 -11.5t84 -2q217 0 360 64.5t227 172t118 245t34 282.5q0 113 -15.5 201t-38 154.5t-48 110.5t-48.5 71l191 229h-283l-71 -90q-92 53 -185.5 71.5t-201.5 18.5q-358 0 -549 -186.5t-191 -587.5q0 -154 32 -273.5 t122 -238.5zM420 705q0 121 21.5 216t68.5 159.5t122 98t181 33.5q51 0 104.5 -7t98.5 -36l2 -2l-551 -682q-47 106 -47 220zM610 313l553 684q23 -39 32 -91t9 -156q0 -229 -93 -358.5t-277 -129.5q-72 0 -126.5 11.5t-97.5 39.5z" />
<glyph unicode="&#xf9;" horiz-adv-x="1468" d="M147 492v978h349v-997q0 -55 11 -96t42 -68.5t84 -41t137 -13.5q141 0 189.5 53t48.5 158v1005h348v-983q0 -139 -42 -236t-120 -159.5t-191.5 -91.5t-254.5 -29q-160 0 -274 36t-186.5 103.5t-106.5 164t-34 217.5zM502 1565h383l106 -176h-387z" />
<glyph unicode="&#xfa;" horiz-adv-x="1468" d="M147 492v978h349v-997q0 -55 11 -96t42 -68.5t84 -41t137 -13.5q141 0 189.5 53t48.5 158v1005h348v-983q0 -139 -42 -236t-120 -159.5t-191.5 -91.5t-254.5 -29q-160 0 -274 36t-186.5 103.5t-106.5 164t-34 217.5zM557 1389l107 176h383l-103 -176h-387z" />
<glyph unicode="&#xfb;" horiz-adv-x="1454" d="M147 492v978h349v-997q0 -55 11 -96t42 -68.5t84 -41t137 -13.5q141 0 189.5 53t48.5 158v1005h348v-983q0 -139 -42 -236t-120 -159.5t-191.5 -91.5t-254.5 -29q-160 0 -274 36t-186.5 103.5t-106.5 164t-34 217.5zM528 1389l45 176h365l37 -176h-447z" />
<glyph unicode="&#xfc;" horiz-adv-x="1468" d="M147 492v978h332v95h248v-207h-231v-885q0 -55 11 -96t42 -68.5t84 -41t137 -13.5q141 0 189.5 53t48.5 158v893h-234v207h248v-95h334v-983q0 -139 -42 -236t-120 -159.5t-191.5 -91.5t-254.5 -29q-160 0 -274 36t-186.5 103.5t-106.5 164t-34 217.5z" />
<glyph unicode="&#xfd;" horiz-adv-x="1323" d="M23 1470h395l258 -561l287 561h393l-506 -919v-551h-348v547zM475 1389l107 176h383l-103 -176h-387z" />
<glyph unicode="&#xff;" horiz-adv-x="1323" d="M23 1470h395v95h248v-207h-197l207 -449l229 449h-192v207h248v-99l2 4h393l-506 -919v-551h-348v547z" />
<glyph unicode="&#x152;" horiz-adv-x="2228" d="M92 731q0 199 51.5 344.5t144.5 239.5t224 139t293 45q240 0 309 -106v77h1075v-294h-737v-256h670v-295h-670v-326h758v-299h-1096v82q-41 -41 -86 -64.5t-92 -34t-96 -12.5t-99 -2q-170 0 -292.5 61.5t-201.5 166t-117 243t-38 291.5zM440 752q0 -152 27 -246 t75 -148.5t116.5 -74t152.5 -19.5q150 0 226.5 72t76.5 170v452q0 45 -18.5 89.5t-55 80t-95 57t-138.5 21.5q-90 0 -157.5 -24.5t-115 -78.5t-71 -141.5t-23.5 -209.5z" />
<glyph unicode="&#x153;" horiz-adv-x="2228" d="M92 731q0 199 51.5 344.5t144.5 239.5t224 139t293 45q240 0 309 -106v77h1075v-294h-737v-256h670v-295h-670v-326h758v-299h-1096v82q-41 -41 -86 -64.5t-92 -34t-96 -12.5t-99 -2q-170 0 -292.5 61.5t-201.5 166t-117 243t-38 291.5zM440 752q0 -152 27 -246 t75 -148.5t116.5 -74t152.5 -19.5q150 0 226.5 72t76.5 170v452q0 45 -18.5 89.5t-55 80t-95 57t-138.5 21.5q-90 0 -157.5 -24.5t-115 -78.5t-71 -141.5t-23.5 -209.5z" />
<glyph unicode="&#x178;" horiz-adv-x="1323" d="M23 1470h395v95h248v-207h-197l207 -449l229 449h-192v207h248v-99l2 4h393l-506 -919v-551h-348v547z" />
<glyph unicode="&#x2c6;" horiz-adv-x="716" d="M96 1208h158l104 133l105 -133h155l-118 291h-285z" />
<glyph unicode="&#x2dc;" horiz-adv-x="778" d="M61 1278q0 100 52.5 156.5t132.5 56.5q43 0 89 -18.5t85 -37t66.5 -26.5t33.5 14l21 68h172q0 -35 1 -49.5t1 -24.5q0 -88 -50.5 -152.5t-148.5 -64.5q-43 0 -84 20.5t-73.5 40t-55 25.5t-31.5 -20l-20 -64h-189q0 35 -1 50.5t-1 25.5z" />
<glyph unicode="&#x2000;" horiz-adv-x="957" />
<glyph unicode="&#x2001;" horiz-adv-x="1915" />
<glyph unicode="&#x2002;" horiz-adv-x="957" />
<glyph unicode="&#x2003;" horiz-adv-x="1915" />
<glyph unicode="&#x2004;" horiz-adv-x="638" />
<glyph unicode="&#x2005;" horiz-adv-x="478" />
<glyph unicode="&#x2006;" horiz-adv-x="319" />
<glyph unicode="&#x2007;" horiz-adv-x="319" />
<glyph unicode="&#x2008;" horiz-adv-x="239" />
<glyph unicode="&#x2009;" horiz-adv-x="383" />
<glyph unicode="&#x200a;" horiz-adv-x="106" />
<glyph unicode="&#x2010;" horiz-adv-x="778" d="M125 420v303h528v-303h-528z" />
<glyph unicode="&#x2011;" horiz-adv-x="778" d="M125 420v303h528v-303h-528z" />
<glyph unicode="&#x2012;" horiz-adv-x="778" d="M125 420v303h528v-303h-528z" />
<glyph unicode="&#x2013;" horiz-adv-x="778" d="M125 420v303h528v-303h-528z" />
<glyph unicode="&#x2014;" horiz-adv-x="1638" d="M117 420v303h1405v-303h-1405z" />
<glyph unicode="&#x2018;" horiz-adv-x="501" d="M88 850v278q0 51 12.5 106.5t40.5 98.5q41 61 102.5 96t166.5 46v-134q-59 -35 -96.5 -69.5t-43.5 -106.5h144v-315h-326z" />
<glyph unicode="&#x2019;" horiz-adv-x="501" d="M88 1155v315h326v-278q0 -51 -12.5 -106.5t-41.5 -98.5q-41 -61 -102 -96t-166 -45v133q59 35 96 69.5t43 106.5h-143z" />
<glyph unicode="&#x201a;" horiz-adv-x="532" d="M92 -35v316h328v-279q0 -51 -13.5 -105.5t-41.5 -99.5q-41 -59 -101.5 -95t-167.5 -46v133q59 35 96 70t44 106h-144z" />
<glyph unicode="&#x201c;" horiz-adv-x="819" d="M82 850v278q0 51 13.5 105.5t41.5 99.5q41 59 101.5 95t167.5 47v-134q-59 -35 -96.5 -69.5t-43.5 -106.5h144v-315h-328zM475 850v278q0 51 12.5 106.5t40.5 98.5q41 61 102.5 96t166.5 46v-134q-59 -35 -95 -69.5t-43 -106.5h142v-315h-326z" />
<glyph unicode="&#x201d;" horiz-adv-x="819" d="M82 1155v315h328v-278q0 -51 -13.5 -105.5t-42.5 -99.5q-41 -59 -101 -95t-167 -46v133q59 35 96 69.5t43 106.5h-143zM475 1155v315h328v-278q0 -51 -13.5 -105.5t-41.5 -99.5q-41 -59 -101.5 -95t-167.5 -46v133q59 35 96 69.5t43 106.5h-143z" />
<glyph unicode="&#x201e;" horiz-adv-x="911" d="M86 -35v316h326v-279q0 -51 -12.5 -106.5t-41.5 -98.5q-41 -61 -102 -96t-166 -45v133q59 35 96 70t43 106h-143zM500 -35v316h325v-279q0 -51 -12 -106.5t-41 -98.5q-41 -61 -102.5 -96t-165.5 -45v133q59 35 95 70t42 106h-141z" />
<glyph unicode="&#x2022;" horiz-adv-x="1136" d="M180 748q-2 -82 29 -154t84 -125t123.5 -86t150.5 -35q80 -4 150.5 25.5t124 83t84 125t30.5 151.5q0 82 -28.5 153.5t-79.5 125t-122 85t-153 31.5q-80 0 -150.5 -29.5t-123.5 -80.5t-85 -121t-34 -149z" />
<glyph unicode="&#x2026;" horiz-adv-x="1597" d="M131 0v342h346v-342h-346zM641 0v342h346v-342h-346zM1145 0v342h346v-342h-346z" />
<glyph unicode="&#x202f;" horiz-adv-x="383" />
<glyph unicode="&#x2039;" horiz-adv-x="665" d="M45 526l270 -428h289l-272 428l289 441h-283z" />
<glyph unicode="&#x203a;" horiz-adv-x="665" d="M45 967l289 -441l-273 -428h289l271 428l-293 441h-283z" />
<glyph unicode="&#x205f;" horiz-adv-x="478" />
<glyph unicode="&#x20ac;" horiz-adv-x="1585" d="M49 467v205h135q-2 10 -2 18v21v41v32h-133v205h156q49 240 216 375t462 135q184 0 300.5 -46t186.5 -119.5t100.5 -168t42.5 -188.5h-329q-12 49 -26.5 94t-44.5 78t-80 52.5t-134 19.5q-145 0 -224 -52.5t-114 -179.5h471v-205h-495q-2 -8 -2 -16v-18v-37v-41h497v-205 h-469q18 -66 50 -107t74 -64.5t94.5 -32.5t111.5 -9q84 0 133 20.5t78 58.5t45 90t33 118h340q-12 -115 -50 -218.5t-112 -181.5t-190.5 -124t-284.5 -46q-305 0 -466 127t-210 369h-160z" />
<glyph unicode="&#x2122;" horiz-adv-x="1331" d="M100 1319v151h471v-151h-151v-531h-166v531h-154zM614 788v682h224l92 -378l82 378h219v-679h-158v370l-59 -370h-170l-68 366v-369h-162z" />
<glyph unicode="&#xe000;" horiz-adv-x="1474" d="M0 0v1475h1475v-1475h-1475z" />
</font>
</defs>
</svg>
